<svg id="visual" viewBox="0 0 900 600" width="900" height="600" xmlns="http://www.w3.org/2000/svg" xmlns:xlink="http://www.w3.org/1999/xlink" version="1.1"><rect width="900" height="600" fill="#000000"></rect><g><g transform="translate(780 187)"><path d="M0 -14.1L9.9 -9.9L14.1 0L9.9 9.9L0 14.1L-9.9 9.9L-14.1 0L-9.9 -9.9Z" fill="none" stroke="#111" stroke-width="1"></path></g><g transform="translate(78 493)"><path d="M0 -8L5.7 -5.7L8 0L5.7 5.7L0 8L-5.7 5.7L-8 0L-5.7 -5.7Z" fill="none" stroke="#111" stroke-width="1"></path></g><g transform="translate(574 478)"><path d="M0 -5L3.5 -3.5L5 0L3.5 3.5L0 5L-3.5 3.5L-5 0L-3.5 -3.5Z" fill="none" stroke="#111" stroke-width="1"></path></g><g transform="translate(215 496)"><path d="M0 -12L8.5 -8.5L12 0L8.5 8.5L0 12L-8.5 8.5L-12 0L-8.5 -8.5Z" fill="none" stroke="#111" stroke-width="1"></path></g><g transform="translate(839 461)"><path d="M0 -6L4.2 -4.2L6 0L4.2 4.2L0 6L-4.2 4.2L-6 0L-4.2 -4.2Z" stroke="#111" fill="none" stroke-width="1"></path></g><g transform="translate(283 565)"><path d="M0 -9L6.4 -6.4L9 0L6.4 6.4L0 9L-6.4 6.4L-9 0L-6.4 -6.4Z" stroke="#111" fill="none" stroke-width="1"></path></g><g transform="translate(457 375)"><path d="M0 -5L3.5 -3.5L5 0L3.5 3.5L0 5L-3.5 3.5L-5 0L-3.5 -3.5Z" stroke="#111" fill="none" stroke-width="1"></path></g><g transform="translate(534 266)"><path d="M0 -6L4.2 -4.2L6 0L4.2 4.2L0 6L-4.2 4.2L-6 0L-4.2 -4.2Z" stroke="#111" fill="none" stroke-width="1"></path></g><g transform="translate(748 361)"><path d="M0 -13L9.2 -9.2L13 0L9.2 9.2L0 13L-9.2 9.2L-13 0L-9.2 -9.2Z" stroke="#111" fill="none" stroke-width="1"></path></g><g transform="translate(665 241)"><path d="M0 -5L3.5 -3.5L5 0L3.5 3.5L0 5L-3.5 3.5L-5 0L-3.5 -3.5Z" stroke="#111" fill="none" stroke-width="1"></path></g><g transform="translate(161 381)"><path d="M0 -13L9.2 -9.2L13 0L9.2 9.2L0 13L-9.2 9.2L-13 0L-9.2 -9.2Z" stroke="#111" fill="none" stroke-width="1"></path></g><g transform="translate(469 240)"><path d="M0 -9L6.4 -6.4L9 0L6.4 6.4L0 9L-6.4 6.4L-9 0L-6.4 -6.4Z" stroke="#111" fill="none" stroke-width="1"></path></g><g transform="translate(42 367)"><path d="M0 -9L6.4 -6.4L9 0L6.4 6.4L0 9L-6.4 6.4L-9 0L-6.4 -6.4Z" stroke="#111" fill="none" stroke-width="1"></path></g><g transform="translate(296 49)"><path d="M0 -12L8.5 -8.5L12 0L8.5 8.5L0 12L-8.5 8.5L-12 0L-8.5 -8.5Z" stroke="#111" fill="none" stroke-width="1"></path></g><g transform="translate(348 417)"><path d="M0 -8L5.7 -5.7L8 0L5.7 5.7L0 8L-5.7 5.7L-8 0L-5.7 -5.7Z" stroke="#111" fill="none" stroke-width="1"></path></g><g transform="translate(541 194)"><path d="M0 -10L7.1 -7.1L10 0L7.1 7.1L0 10L-7.1 7.1L-10 0L-7.1 -7.1Z" stroke="#111" fill="none" stroke-width="1"></path></g><g transform="translate(146 170)"><path d="M0 -11L7.8 -7.8L11 0L7.8 7.8L0 11L-7.8 7.8L-11 0L-7.8 -7.8Z" stroke="#111" fill="none" stroke-width="1"></path></g><g transform="translate(382 533)"><path d="M0 -9L6.4 -6.4L9 0L6.4 6.4L0 9L-6.4 6.4L-9 0L-6.4 -6.4Z" stroke="#111" fill="none" stroke-width="1"></path></g><g transform="translate(155 416)"><path d="M0 -9L6.4 -6.4L9 0L6.4 6.4L0 9L-6.4 6.4L-9 0L-6.4 -6.4Z" stroke="#111" fill="none" stroke-width="1"></path></g><g transform="translate(750 578)"><path d="M0 -10L7.1 -7.1L10 0L7.1 7.1L0 10L-7.1 7.1L-10 0L-7.1 -7.1Z" stroke="#111" fill="none" stroke-width="1"></path></g><g transform="translate(242 129)"><path d="M0 -6L4.2 -4.2L6 0L4.2 4.2L0 6L-4.2 4.2L-6 0L-4.2 -4.2Z" stroke="#111" fill="none" stroke-width="1"></path></g><g transform="translate(154 339)"><path d="M0 -13L9.2 -9.2L13 0L9.2 9.2L0 13L-9.2 9.2L-13 0L-9.2 -9.2Z" stroke="#111" fill="none" stroke-width="1"></path></g><g transform="translate(455 139)"><path d="M0 -4L2.8 -2.8L4 0L2.8 2.8L0 4L-2.8 2.8L-4 0L-2.8 -2.8Z" stroke="#111" fill="none" stroke-width="1"></path></g><g transform="translate(370 303)"><path d="M0 -7L4.9 -4.9L7 0L4.9 4.9L0 7L-4.9 4.9L-7 0L-4.9 -4.9Z" stroke="#111" fill="none" stroke-width="1"></path></g><g transform="translate(105 268)"><path d="M0 -10L7.1 -7.1L10 0L7.1 7.1L0 10L-7.1 7.1L-10 0L-7.1 -7.1Z" stroke="#111" fill="none" stroke-width="1"></path></g><g transform="translate(872 591)"><path d="M0 -10L7.1 -7.1L10 0L7.1 7.1L0 10L-7.1 7.1L-10 0L-7.1 -7.1Z" stroke="#111" fill="none" stroke-width="1"></path></g><g transform="translate(7 538)"><path d="M0 -10L7.1 -7.1L10 0L7.1 7.1L0 10L-7.1 7.1L-10 0L-7.1 -7.1Z" stroke="#111" fill="none" stroke-width="1"></path></g><g transform="translate(817 305)"><path d="M0 -12L8.5 -8.5L12 0L8.5 8.5L0 12L-8.5 8.5L-12 0L-8.5 -8.5Z" stroke="#111" fill="none" stroke-width="1"></path></g><g transform="translate(695 239)"><path d="M0 -3L2.1 -2.1L3 0L2.1 2.1L0 3L-2.1 2.1L-3 0L-2.1 -2.1Z" stroke="#111" fill="none" stroke-width="1"></path></g><g transform="translate(60 84)"><path d="M0 -7L4.9 -4.9L7 0L4.9 4.9L0 7L-4.9 4.9L-7 0L-4.9 -4.9Z" stroke="#111" fill="none" stroke-width="1"></path></g><g transform="translate(823 115)"><path d="M0 -5L3.5 -3.5L5 0L3.5 3.5L0 5L-3.5 3.5L-5 0L-3.5 -3.5Z" stroke="#111" fill="none" stroke-width="1"></path></g><g transform="translate(188 261)"><path d="M0 -12L8.5 -8.5L12 0L8.5 8.5L0 12L-8.5 8.5L-12 0L-8.5 -8.5Z" stroke="#111" fill="none" stroke-width="1"></path></g><g transform="translate(266 66)"><path d="M0 -12L8.5 -8.5L12 0L8.5 8.5L0 12L-8.5 8.5L-12 0L-8.5 -8.5Z" stroke="#111" fill="none" stroke-width="1"></path></g><g transform="translate(421 346)"><path d="M0 -10L7.1 -7.1L10 0L7.1 7.1L0 10L-7.1 7.1L-10 0L-7.1 -7.1Z" stroke="#111" fill="none" stroke-width="1"></path></g><g transform="translate(575 365)"><path d="M0 -3L2.1 -2.1L3 0L2.1 2.1L0 3L-2.1 2.1L-3 0L-2.1 -2.1Z" stroke="#111" fill="none" stroke-width="1"></path></g><g transform="translate(60 162)"><path d="M0 -10L7.1 -7.1L10 0L7.1 7.1L0 10L-7.1 7.1L-10 0L-7.1 -7.1Z" stroke="#111" fill="none" stroke-width="1"></path></g><g transform="translate(452 586)"><path d="M0 -3L2.1 -2.1L3 0L2.1 2.1L0 3L-2.1 2.1L-3 0L-2.1 -2.1Z" stroke="#111" fill="none" stroke-width="1"></path></g><g transform="translate(769 51)"><path d="M0 -6L4.2 -4.2L6 0L4.2 4.2L0 6L-4.2 4.2L-6 0L-4.2 -4.2Z" stroke="#111" fill="none" stroke-width="1"></path></g><g transform="translate(658 578)"><path d="M0 -7L4.9 -4.9L7 0L4.9 4.9L0 7L-4.9 4.9L-7 0L-4.9 -4.9Z" stroke="#111" fill="none" stroke-width="1"></path></g><g transform="translate(251 541)"><path d="M0 -10L7.1 -7.1L10 0L7.1 7.1L0 10L-7.1 7.1L-10 0L-7.1 -7.1Z" stroke="#111" fill="none" stroke-width="1"></path></g><g transform="translate(584 447)"><path d="M0 -6L4.2 -4.2L6 0L4.2 4.2L0 6L-4.2 4.2L-6 0L-4.2 -4.2Z" stroke="#111" fill="none" stroke-width="1"></path></g><g transform="translate(811 206)"><path d="M0 -7L4.9 -4.9L7 0L4.9 4.9L0 7L-4.9 4.9L-7 0L-4.9 -4.9Z" stroke="#111" fill="none" stroke-width="1"></path></g><g transform="translate(368 391)"><path d="M0 -13L9.2 -9.2L13 0L9.2 9.2L0 13L-9.2 9.2L-13 0L-9.2 -9.2Z" stroke="#111" fill="none" stroke-width="1"></path></g><g transform="translate(245 342)"><path d="M0 -7L4.9 -4.9L7 0L4.9 4.9L0 7L-4.9 4.9L-7 0L-4.9 -4.9Z" stroke="#111" fill="none" stroke-width="1"></path></g><g transform="translate(178 207)"><path d="M0 -13L9.2 -9.2L13 0L9.2 9.2L0 13L-9.2 9.2L-13 0L-9.2 -9.2Z" stroke="#111" fill="none" stroke-width="1"></path></g><g transform="translate(367 78)"><path d="M0 -6L4.2 -4.2L6 0L4.2 4.2L0 6L-4.2 4.2L-6 0L-4.2 -4.2Z" stroke="#111" fill="none" stroke-width="1"></path></g><g transform="translate(602 183)"><path d="M0 -8L5.7 -5.7L8 0L5.7 5.7L0 8L-5.7 5.7L-8 0L-5.7 -5.7Z" stroke="#111" fill="none" stroke-width="1"></path></g><g transform="translate(477 419)"><path d="M0 -5L3.5 -3.5L5 0L3.5 3.5L0 5L-3.5 3.5L-5 0L-3.5 -3.5Z" stroke="#111" fill="none" stroke-width="1"></path></g><g transform="translate(377 243)"><path d="M0 -9L6.4 -6.4L9 0L6.4 6.4L0 9L-6.4 6.4L-9 0L-6.4 -6.4Z" stroke="#111" fill="none" stroke-width="1"></path></g><g transform="translate(501 286)"><path d="M0 -8L5.7 -5.7L8 0L5.7 5.7L0 8L-5.7 5.7L-8 0L-5.7 -5.7Z" stroke="#111" fill="none" stroke-width="1"></path></g><g transform="translate(671 170)"><path d="M0 -10L7.1 -7.1L10 0L7.1 7.1L0 10L-7.1 7.1L-10 0L-7.1 -7.1Z" stroke="#111" fill="none" stroke-width="1"></path></g><g transform="translate(124 58)"><path d="M0 -10L7.1 -7.1L10 0L7.1 7.1L0 10L-7.1 7.1L-10 0L-7.1 -7.1Z" stroke="#111" fill="none" stroke-width="1"></path></g><g transform="translate(208 562)"><path d="M0 -6L4.2 -4.2L6 0L4.2 4.2L0 6L-4.2 4.2L-6 0L-4.2 -4.2Z" stroke="#111" fill="none" stroke-width="1"></path></g><g transform="translate(301 234)"><path d="M0 -9L6.4 -6.4L9 0L6.4 6.4L0 9L-6.4 6.4L-9 0L-6.4 -6.4Z" stroke="#111" fill="none" stroke-width="1"></path></g><g transform="translate(24 122)"><path d="M0 -12L8.5 -8.5L12 0L8.5 8.5L0 12L-8.5 8.5L-12 0L-8.5 -8.5Z" stroke="#111" fill="none" stroke-width="1"></path></g><g transform="translate(92 80)"><path d="M0 -9L6.4 -6.4L9 0L6.4 6.4L0 9L-6.4 6.4L-9 0L-6.4 -6.4Z" stroke="#111" fill="none" stroke-width="1"></path></g><g transform="translate(404 132)"><path d="M0 -5L3.5 -3.5L5 0L3.5 3.5L0 5L-3.5 3.5L-5 0L-3.5 -3.5Z" stroke="#111" fill="none" stroke-width="1"></path></g><g transform="translate(241 410)"><path d="M0 -8L5.7 -5.7L8 0L5.7 5.7L0 8L-5.7 5.7L-8 0L-5.7 -5.7Z" stroke="#111" fill="none" stroke-width="1"></path></g><g transform="translate(18 171)"><path d="M0 -4L2.8 -2.8L4 0L2.8 2.8L0 4L-2.8 2.8L-4 0L-2.8 -2.8Z" stroke="#111" fill="none" stroke-width="1"></path></g><g transform="translate(511 176)"><path d="M0 -9L6.4 -6.4L9 0L6.4 6.4L0 9L-6.4 6.4L-9 0L-6.4 -6.4Z" stroke="#111" fill="none" stroke-width="1"></path></g><g transform="translate(595 304)"><path d="M0 -11L7.8 -7.8L11 0L7.8 7.8L0 11L-7.8 7.8L-11 0L-7.8 -7.8Z" stroke="#111" fill="none" stroke-width="1"></path></g><g transform="translate(606 145)"><path d="M0 -7L4.9 -4.9L7 0L4.9 4.9L0 7L-4.9 4.9L-7 0L-4.9 -4.9Z" stroke="#111" fill="none" stroke-width="1"></path></g><g transform="translate(629 345)"><path d="M0 -13L9.2 -9.2L13 0L9.2 9.2L0 13L-9.2 9.2L-13 0L-9.2 -9.2Z" stroke="#111" fill="none" stroke-width="1"></path></g><g transform="translate(523 306)"><path d="M0 -4L2.8 -2.8L4 0L2.8 2.8L0 4L-2.8 2.8L-4 0L-2.8 -2.8Z" stroke="#111" fill="none" stroke-width="1"></path></g><g transform="translate(182 454)"><path d="M0 -3L2.1 -2.1L3 0L2.1 2.1L0 3L-2.1 2.1L-3 0L-2.1 -2.1Z" stroke="#111" fill="none" stroke-width="1"></path></g><g transform="translate(534 439)"><path d="M0 -13L9.2 -9.2L13 0L9.2 9.2L0 13L-9.2 9.2L-13 0L-9.2 -9.2Z" stroke="#111" fill="none" stroke-width="1"></path></g><g transform="translate(206 67)"><path d="M0 -11L7.8 -7.8L11 0L7.8 7.8L0 11L-7.8 7.8L-11 0L-7.8 -7.8Z" stroke="#111" fill="none" stroke-width="1"></path></g><g transform="translate(408 96)"><path d="M0 -10L7.1 -7.1L10 0L7.1 7.1L0 10L-7.1 7.1L-10 0L-7.1 -7.1Z" stroke="#111" fill="none" stroke-width="1"></path></g><g transform="translate(704 390)"><path d="M0 -9L6.4 -6.4L9 0L6.4 6.4L0 9L-6.4 6.4L-9 0L-6.4 -6.4Z" stroke="#111" fill="none" stroke-width="1"></path></g><g transform="translate(591 543)"><path d="M0 -12L8.5 -8.5L12 0L8.5 8.5L0 12L-8.5 8.5L-12 0L-8.5 -8.5Z" stroke="#111" fill="none" stroke-width="1"></path></g><g transform="translate(87 374)"><path d="M0 -3L2.1 -2.1L3 0L2.1 2.1L0 3L-2.1 2.1L-3 0L-2.1 -2.1Z" stroke="#111" fill="none" stroke-width="1"></path></g><g transform="translate(584 11)"><path d="M0 -5L3.5 -3.5L5 0L3.5 3.5L0 5L-3.5 3.5L-5 0L-3.5 -3.5Z" stroke="#111" fill="none" stroke-width="1"></path></g><g transform="translate(700 19)"><path d="M0 -13L9.2 -9.2L13 0L9.2 9.2L0 13L-9.2 9.2L-13 0L-9.2 -9.2Z" stroke="#111" fill="none" stroke-width="1"></path></g><g transform="translate(416 418)"><path d="M0 -4L2.8 -2.8L4 0L2.8 2.8L0 4L-2.8 2.8L-4 0L-2.8 -2.8Z" stroke="#111" fill="none" stroke-width="1"></path></g><g transform="translate(251 310)"><path d="M0 -3L2.1 -2.1L3 0L2.1 2.1L0 3L-2.1 2.1L-3 0L-2.1 -2.1Z" stroke="#111" fill="none" stroke-width="1"></path></g><g transform="translate(317 91)"><path d="M0 -11L7.8 -7.8L11 0L7.8 7.8L0 11L-7.8 7.8L-11 0L-7.8 -7.8Z" stroke="#111" fill="none" stroke-width="1"></path></g><g transform="translate(468 340)"><path d="M0 -3L2.1 -2.1L3 0L2.1 2.1L0 3L-2.1 2.1L-3 0L-2.1 -2.1Z" stroke="#111" fill="none" stroke-width="1"></path></g><g transform="translate(508 108)"><path d="M0 -3L2.1 -2.1L3 0L2.1 2.1L0 3L-2.1 2.1L-3 0L-2.1 -2.1Z" stroke="#111" fill="none" stroke-width="1"></path></g><g transform="translate(196 387)"><path d="M0 -6L4.2 -4.2L6 0L4.2 4.2L0 6L-4.2 4.2L-6 0L-4.2 -4.2Z" stroke="#111" fill="none" stroke-width="1"></path></g><g transform="translate(113 413)"><path d="M0 -5L3.5 -3.5L5 0L3.5 3.5L0 5L-3.5 3.5L-5 0L-3.5 -3.5Z" stroke="#111" fill="none" stroke-width="1"></path></g><g transform="translate(435 560)"><path d="M0 -5L3.5 -3.5L5 0L3.5 3.5L0 5L-3.5 3.5L-5 0L-3.5 -3.5Z" stroke="#111" fill="none" stroke-width="1"></path></g><g transform="translate(493 564)"><path d="M0 -8L5.7 -5.7L8 0L5.7 5.7L0 8L-5.7 5.7L-8 0L-5.7 -5.7Z" stroke="#111" fill="none" stroke-width="1"></path></g><g transform="translate(289 189)"><path d="M0 -6L4.2 -4.2L6 0L4.2 4.2L0 6L-4.2 4.2L-6 0L-4.2 -4.2Z" stroke="#111" fill="none" stroke-width="1"></path></g><g transform="translate(473 42)"><path d="M0 -6L4.2 -4.2L6 0L4.2 4.2L0 6L-4.2 4.2L-6 0L-4.2 -4.2Z" stroke="#111" fill="none" stroke-width="1"></path></g><g transform="translate(270 210)"><path d="M0 -9L6.4 -6.4L9 0L6.4 6.4L0 9L-6.4 6.4L-9 0L-6.4 -6.4Z" stroke="#111" fill="none" stroke-width="1"></path></g><g transform="translate(167 235)"><path d="M0 -11L7.8 -7.8L11 0L7.8 7.8L0 11L-7.8 7.8L-11 0L-7.8 -7.8Z" stroke="#111" fill="none" stroke-width="1"></path></g><g transform="translate(38 276)"><path d="M0 -11L7.8 -7.8L11 0L7.8 7.8L0 11L-7.8 7.8L-11 0L-7.8 -7.8Z" stroke="#111" fill="none" stroke-width="1"></path></g><g transform="translate(75 205)"><path d="M0 -10L7.1 -7.1L10 0L7.1 7.1L0 10L-7.1 7.1L-10 0L-7.1 -7.1Z" stroke="#111" fill="none" stroke-width="1"></path></g><g transform="translate(657 289)"><path d="M0 -8L5.7 -5.7L8 0L5.7 5.7L0 8L-5.7 5.7L-8 0L-5.7 -5.7Z" stroke="#111" fill="none" stroke-width="1"></path></g><g transform="translate(319 163)"><path d="M0 -8L5.7 -5.7L8 0L5.7 5.7L0 8L-5.7 5.7L-8 0L-5.7 -5.7Z" stroke="#111" fill="none" stroke-width="1"></path></g><g transform="translate(526 33)"><path d="M0 -12L8.5 -8.5L12 0L8.5 8.5L0 12L-8.5 8.5L-12 0L-8.5 -8.5Z" stroke="#111" fill="none" stroke-width="1"></path></g><g transform="translate(405 271)"><path d="M0 -3L2.1 -2.1L3 0L2.1 2.1L0 3L-2.1 2.1L-3 0L-2.1 -2.1Z" stroke="#111" fill="none" stroke-width="1"></path></g><g transform="translate(110 158)"><path d="M0 -5L3.5 -3.5L5 0L3.5 3.5L0 5L-3.5 3.5L-5 0L-3.5 -3.5Z" stroke="#111" fill="none" stroke-width="1"></path></g><g transform="translate(145 515)"><path d="M0 -8L5.7 -5.7L8 0L5.7 5.7L0 8L-5.7 5.7L-8 0L-5.7 -5.7Z" stroke="#111" fill="none" stroke-width="1"></path></g><g transform="translate(828 569)"><path d="M0 -4L2.8 -2.8L4 0L2.8 2.8L0 4L-2.8 2.8L-4 0L-2.8 -2.8Z" stroke="#111" fill="none" stroke-width="1"></path></g><g transform="translate(674 30)"><path d="M0 -3L2.1 -2.1L3 0L2.1 2.1L0 3L-2.1 2.1L-3 0L-2.1 -2.1Z" stroke="#111" fill="none" stroke-width="1"></path></g><g transform="translate(766 324)"><path d="M0 -5L3.5 -3.5L5 0L3.5 3.5L0 5L-3.5 3.5L-5 0L-3.5 -3.5Z" stroke="#111" fill="none" stroke-width="1"></path></g><g transform="translate(351 11)"><path d="M0 -3L2.1 -2.1L3 0L2.1 2.1L0 3L-2.1 2.1L-3 0L-2.1 -2.1Z" stroke="#111" fill="none" stroke-width="1"></path></g><g transform="translate(487 476)"><path d="M0 -10L7.1 -7.1L10 0L7.1 7.1L0 10L-7.1 7.1L-10 0L-7.1 -7.1Z" stroke="#111" fill="none" stroke-width="1"></path></g><g transform="translate(300 486)"><path d="M0 -6L4.2 -4.2L6 0L4.2 4.2L0 6L-4.2 4.2L-6 0L-4.2 -4.2Z" stroke="#111" fill="none" stroke-width="1"></path></g><g transform="translate(815 80)"><path d="M0 -6L4.2 -4.2L6 0L4.2 4.2L0 6L-4.2 4.2L-6 0L-4.2 -4.2Z" stroke="#111" fill="none" stroke-width="1"></path></g><g transform="translate(795 584)"><path d="M0 -13L9.2 -9.2L13 0L9.2 9.2L0 13L-9.2 9.2L-13 0L-9.2 -9.2Z" stroke="#111" fill="none" stroke-width="1"></path></g><g transform="translate(719 202)"><path d="M0 -8L5.7 -5.7L8 0L5.7 5.7L0 8L-5.7 5.7L-8 0L-5.7 -5.7Z" stroke="#111" fill="none" stroke-width="1"></path></g><g transform="translate(759 127)"><path d="M0 -7L4.9 -4.9L7 0L4.9 4.9L0 7L-4.9 4.9L-7 0L-4.9 -4.9Z" stroke="#111" fill="none" stroke-width="1"></path></g><g transform="translate(590 79)"><path d="M0 -12L8.5 -8.5L12 0L8.5 8.5L0 12L-8.5 8.5L-12 0L-8.5 -8.5Z" stroke="#111" fill="none" stroke-width="1"></path></g><g transform="translate(521 412)"><path d="M0 -12L8.5 -8.5L12 0L8.5 8.5L0 12L-8.5 8.5L-12 0L-8.5 -8.5Z" stroke="#111" fill="none" stroke-width="1"></path></g><g transform="translate(888 535)"><path d="M0 -7L4.9 -4.9L7 0L4.9 4.9L0 7L-4.9 4.9L-7 0L-4.9 -4.9Z" stroke="#111" fill="none" stroke-width="1"></path></g><g transform="translate(345 542)"><path d="M0 -8L5.7 -5.7L8 0L5.7 5.7L0 8L-5.7 5.7L-8 0L-5.7 -5.7Z" stroke="#111" fill="none" stroke-width="1"></path></g><g transform="translate(178 152)"><path d="M0 -9L6.4 -6.4L9 0L6.4 6.4L0 9L-6.4 6.4L-9 0L-6.4 -6.4Z" stroke="#111" fill="none" stroke-width="1"></path></g><g transform="translate(205 217)"><path d="M0 -8L5.7 -5.7L8 0L5.7 5.7L0 8L-5.7 5.7L-8 0L-5.7 -5.7Z" stroke="#111" fill="none" stroke-width="1"></path></g><g transform="translate(100 219)"><path d="M0 -6L4.2 -4.2L6 0L4.2 4.2L0 6L-4.2 4.2L-6 0L-4.2 -4.2Z" stroke="#111" fill="none" stroke-width="1"></path></g><g transform="translate(288 111)"><path d="M0 -8L5.7 -5.7L8 0L5.7 5.7L0 8L-5.7 5.7L-8 0L-5.7 -5.7Z" stroke="#111" fill="none" stroke-width="1"></path></g><g transform="translate(663 401)"><path d="M0 -6L4.2 -4.2L6 0L4.2 4.2L0 6L-4.2 4.2L-6 0L-4.2 -4.2Z" stroke="#111" fill="none" stroke-width="1"></path></g><g transform="translate(657 209)"><path d="M0 -12L8.5 -8.5L12 0L8.5 8.5L0 12L-8.5 8.5L-12 0L-8.5 -8.5Z" stroke="#111" fill="none" stroke-width="1"></path></g><g transform="translate(300 338)"><path d="M0 -5L3.5 -3.5L5 0L3.5 3.5L0 5L-3.5 3.5L-5 0L-3.5 -3.5Z" stroke="#111" fill="none" stroke-width="1"></path></g><g transform="translate(4 490)"><path d="M0 -10L7.1 -7.1L10 0L7.1 7.1L0 10L-7.1 7.1L-10 0L-7.1 -7.1Z" stroke="#111" fill="none" stroke-width="1"></path></g><g transform="translate(353 457)"><path d="M0 -12L8.5 -8.5L12 0L8.5 8.5L0 12L-8.5 8.5L-12 0L-8.5 -8.5Z" stroke="#111" fill="none" stroke-width="1"></path></g><g transform="translate(8 405)"><path d="M0 -7L4.9 -4.9L7 0L4.9 4.9L0 7L-4.9 4.9L-7 0L-4.9 -4.9Z" stroke="#111" fill="none" stroke-width="1"></path></g><g transform="translate(611 30)"><path d="M0 -3L2.1 -2.1L3 0L2.1 2.1L0 3L-2.1 2.1L-3 0L-2.1 -2.1Z" stroke="#111" fill="none" stroke-width="1"></path></g><g transform="translate(398 221)"><path d="M0 -6L4.2 -4.2L6 0L4.2 4.2L0 6L-4.2 4.2L-6 0L-4.2 -4.2Z" stroke="#111" fill="none" stroke-width="1"></path></g><g transform="translate(96 2)"><path d="M0 -10L7.1 -7.1L10 0L7.1 7.1L0 10L-7.1 7.1L-10 0L-7.1 -7.1Z" stroke="#111" fill="none" stroke-width="1"></path></g><g transform="translate(786 510)"><path d="M0 -9L6.4 -6.4L9 0L6.4 6.4L0 9L-6.4 6.4L-9 0L-6.4 -6.4Z" stroke="#111" fill="none" stroke-width="1"></path></g><g transform="translate(31 59)"><path d="M0 -3L2.1 -2.1L3 0L2.1 2.1L0 3L-2.1 2.1L-3 0L-2.1 -2.1Z" stroke="#111" fill="none" stroke-width="1"></path></g><g transform="translate(71 421)"><path d="M0 -7L4.9 -4.9L7 0L4.9 4.9L0 7L-4.9 4.9L-7 0L-4.9 -4.9Z" stroke="#111" fill="none" stroke-width="1"></path></g><g transform="translate(142 582)"><path d="M0 -9L6.4 -6.4L9 0L6.4 6.4L0 9L-6.4 6.4L-9 0L-6.4 -6.4Z" stroke="#111" fill="none" stroke-width="1"></path></g><g transform="translate(180 539)"><path d="M0 -11L7.8 -7.8L11 0L7.8 7.8L0 11L-7.8 7.8L-11 0L-7.8 -7.8Z" stroke="#111" fill="none" stroke-width="1"></path></g><g transform="translate(639 480)"><path d="M0 -5L3.5 -3.5L5 0L3.5 3.5L0 5L-3.5 3.5L-5 0L-3.5 -3.5Z" stroke="#111" fill="none" stroke-width="1"></path></g><g transform="translate(868 179)"><path d="M0 -7L4.9 -4.9L7 0L4.9 4.9L0 7L-4.9 4.9L-7 0L-4.9 -4.9Z" stroke="#111" fill="none" stroke-width="1"></path></g><g transform="translate(655 513)"><path d="M0 -11L7.8 -7.8L11 0L7.8 7.8L0 11L-7.8 7.8L-11 0L-7.8 -7.8Z" stroke="#111" fill="none" stroke-width="1"></path></g><g transform="translate(459 516)"><path d="M0 -5L3.5 -3.5L5 0L3.5 3.5L0 5L-3.5 3.5L-5 0L-3.5 -3.5Z" stroke="#111" fill="none" stroke-width="1"></path></g><g transform="translate(114 494)"><path d="M0 -3L2.1 -2.1L3 0L2.1 2.1L0 3L-2.1 2.1L-3 0L-2.1 -2.1Z" stroke="#111" fill="none" stroke-width="1"></path></g><g transform="translate(259 481)"><path d="M0 -3L2.1 -2.1L3 0L2.1 2.1L0 3L-2.1 2.1L-3 0L-2.1 -2.1Z" stroke="#111" fill="none" stroke-width="1"></path></g><g transform="translate(574 187)"><path d="M0 -12L8.5 -8.5L12 0L8.5 8.5L0 12L-8.5 8.5L-12 0L-8.5 -8.5Z" stroke="#111" fill="none" stroke-width="1"></path></g><g transform="translate(283 459)"><path d="M0 -5L3.5 -3.5L5 0L3.5 3.5L0 5L-3.5 3.5L-5 0L-3.5 -3.5Z" stroke="#111" fill="none" stroke-width="1"></path></g><g transform="translate(716 72)"><path d="M0 -4L2.8 -2.8L4 0L2.8 2.8L0 4L-2.8 2.8L-4 0L-2.8 -2.8Z" stroke="#111" fill="none" stroke-width="1"></path></g><g transform="translate(690 86)"><path d="M0 -3L2.1 -2.1L3 0L2.1 2.1L0 3L-2.1 2.1L-3 0L-2.1 -2.1Z" stroke="#111" fill="none" stroke-width="1"></path></g><g transform="translate(541 576)"><path d="M0 -10L7.1 -7.1L10 0L7.1 7.1L0 10L-7.1 7.1L-10 0L-7.1 -7.1Z" stroke="#111" fill="none" stroke-width="1"></path></g><g transform="translate(110 128)"><path d="M0 -3L2.1 -2.1L3 0L2.1 2.1L0 3L-2.1 2.1L-3 0L-2.1 -2.1Z" stroke="#111" fill="none" stroke-width="1"></path></g><g transform="translate(437 246)"><path d="M0 -3L2.1 -2.1L3 0L2.1 2.1L0 3L-2.1 2.1L-3 0L-2.1 -2.1Z" stroke="#111" fill="none" stroke-width="1"></path></g><g transform="translate(213 284)"><path d="M0 -5L3.5 -3.5L5 0L3.5 3.5L0 5L-3.5 3.5L-5 0L-3.5 -3.5Z" stroke="#111" fill="none" stroke-width="1"></path></g><g transform="translate(858 551)"><path d="M0 -9L6.4 -6.4L9 0L6.4 6.4L0 9L-6.4 6.4L-9 0L-6.4 -6.4Z" stroke="#111" fill="none" stroke-width="1"></path></g><g transform="translate(764 225)"><path d="M0 -5L3.5 -3.5L5 0L3.5 3.5L0 5L-3.5 3.5L-5 0L-3.5 -3.5Z" stroke="#111" fill="none" stroke-width="1"></path></g><g transform="translate(717 161)"><path d="M0 -8L5.7 -5.7L8 0L5.7 5.7L0 8L-5.7 5.7L-8 0L-5.7 -5.7Z" stroke="#111" fill="none" stroke-width="1"></path></g><g transform="translate(412 309)"><path d="M0 -12L8.5 -8.5L12 0L8.5 8.5L0 12L-8.5 8.5L-12 0L-8.5 -8.5Z" stroke="#111" fill="none" stroke-width="1"></path></g><g transform="translate(328 190)"><path d="M0 -8L5.7 -5.7L8 0L5.7 5.7L0 8L-5.7 5.7L-8 0L-5.7 -5.7Z" stroke="#111" fill="none" stroke-width="1"></path></g><g transform="translate(670 373)"><path d="M0 -11L7.8 -7.8L11 0L7.8 7.8L0 11L-7.8 7.8L-11 0L-7.8 -7.8Z" stroke="#111" fill="none" stroke-width="1"></path></g><g transform="translate(445 90)"><path d="M0 -4L2.8 -2.8L4 0L2.8 2.8L0 4L-2.8 2.8L-4 0L-2.8 -2.8Z" stroke="#111" fill="none" stroke-width="1"></path></g><g transform="translate(536 489)"><path d="M0 -13L9.2 -9.2L13 0L9.2 9.2L0 13L-9.2 9.2L-13 0L-9.2 -9.2Z" stroke="#111" fill="none" stroke-width="1"></path></g><g transform="translate(683 313)"><path d="M0 -3L2.1 -2.1L3 0L2.1 2.1L0 3L-2.1 2.1L-3 0L-2.1 -2.1Z" stroke="#111" fill="none" stroke-width="1"></path></g><g transform="translate(742 257)"><path d="M0 -13L9.2 -9.2L13 0L9.2 9.2L0 13L-9.2 9.2L-13 0L-9.2 -9.2Z" stroke="#111" fill="none" stroke-width="1"></path></g><g transform="translate(472 116)"><path d="M0 -5L3.5 -3.5L5 0L3.5 3.5L0 5L-3.5 3.5L-5 0L-3.5 -3.5Z" stroke="#111" fill="none" stroke-width="1"></path></g><g transform="translate(257 163)"><path d="M0 -12L8.5 -8.5L12 0L8.5 8.5L0 12L-8.5 8.5L-12 0L-8.5 -8.5Z" stroke="#111" fill="none" stroke-width="1"></path></g><g transform="translate(880 491)"><path d="M0 -8L5.7 -5.7L8 0L5.7 5.7L0 8L-5.7 5.7L-8 0L-5.7 -5.7Z" stroke="#111" fill="none" stroke-width="1"></path></g><g transform="translate(873 302)"><path d="M0 -13L9.2 -9.2L13 0L9.2 9.2L0 13L-9.2 9.2L-13 0L-9.2 -9.2Z" stroke="#111" fill="none" stroke-width="1"></path></g><g transform="translate(817 536)"><path d="M0 -5L3.5 -3.5L5 0L3.5 3.5L0 5L-3.5 3.5L-5 0L-3.5 -3.5Z" stroke="#111" fill="none" stroke-width="1"></path></g><g transform="translate(483 195)"><path d="M0 -11L7.8 -7.8L11 0L7.8 7.8L0 11L-7.8 7.8L-11 0L-7.8 -7.8Z" stroke="#111" fill="none" stroke-width="1"></path></g><g transform="translate(569 129)"><path d="M0 -12L8.5 -8.5L12 0L8.5 8.5L0 12L-8.5 8.5L-12 0L-8.5 -8.5Z" stroke="#111" fill="none" stroke-width="1"></path></g><g transform="translate(350 339)"><path d="M0 -12L8.5 -8.5L12 0L8.5 8.5L0 12L-8.5 8.5L-12 0L-8.5 -8.5Z" stroke="#111" fill="none" stroke-width="1"></path></g><g transform="translate(344 587)"><path d="M0 -5L3.5 -3.5L5 0L3.5 3.5L0 5L-3.5 3.5L-5 0L-3.5 -3.5Z" stroke="#111" fill="none" stroke-width="1"></path></g><g transform="translate(47 338)"><path d="M0 -8L5.7 -5.7L8 0L5.7 5.7L0 8L-5.7 5.7L-8 0L-5.7 -5.7Z" stroke="#111" fill="none" stroke-width="1"></path></g><g transform="translate(819 360)"><path d="M0 -13L9.2 -9.2L13 0L9.2 9.2L0 13L-9.2 9.2L-13 0L-9.2 -9.2Z" stroke="#111" fill="none" stroke-width="1"></path></g><g transform="translate(361 156)"><path d="M0 -8L5.7 -5.7L8 0L5.7 5.7L0 8L-5.7 5.7L-8 0L-5.7 -5.7Z" stroke="#111" fill="none" stroke-width="1"></path></g><g transform="translate(607 502)"><path d="M0 -8L5.7 -5.7L8 0L5.7 5.7L0 8L-5.7 5.7L-8 0L-5.7 -5.7Z" stroke="#111" fill="none" stroke-width="1"></path></g><g transform="translate(559 331)"><path d="M0 -12L8.5 -8.5L12 0L8.5 8.5L0 12L-8.5 8.5L-12 0L-8.5 -8.5Z" stroke="#111" fill="none" stroke-width="1"></path></g><g transform="translate(641 153)"><path d="M0 -12L8.5 -8.5L12 0L8.5 8.5L0 12L-8.5 8.5L-12 0L-8.5 -8.5Z" stroke="#111" fill="none" stroke-width="1"></path></g><g transform="translate(612 102)"><path d="M0 -5L3.5 -3.5L5 0L3.5 3.5L0 5L-3.5 3.5L-5 0L-3.5 -3.5Z" stroke="#111" fill="none" stroke-width="1"></path></g><g transform="translate(388 432)"><path d="M0 -5L3.5 -3.5L5 0L3.5 3.5L0 5L-3.5 3.5L-5 0L-3.5 -3.5Z" stroke="#111" fill="none" stroke-width="1"></path></g><g transform="translate(620 387)"><path d="M0 -11L7.8 -7.8L11 0L7.8 7.8L0 11L-7.8 7.8L-11 0L-7.8 -7.8Z" stroke="#111" fill="none" stroke-width="1"></path></g><g transform="translate(755 450)"><path d="M0 -7L4.9 -4.9L7 0L4.9 4.9L0 7L-4.9 4.9L-7 0L-4.9 -4.9Z" stroke="#111" fill="none" stroke-width="1"></path></g><g transform="translate(224 41)"><path d="M0 -9L6.4 -6.4L9 0L6.4 6.4L0 9L-6.4 6.4L-9 0L-6.4 -6.4Z" stroke="#111" fill="none" stroke-width="1"></path></g><g transform="translate(421 533)"><path d="M0 -9L6.4 -6.4L9 0L6.4 6.4L0 9L-6.4 6.4L-9 0L-6.4 -6.4Z" stroke="#111" fill="none" stroke-width="1"></path></g><g transform="translate(411 577)"><path d="M0 -10L7.1 -7.1L10 0L7.1 7.1L0 10L-7.1 7.1L-10 0L-7.1 -7.1Z" stroke="#111" fill="none" stroke-width="1"></path></g><g transform="translate(340 378)"><path d="M0 -6L4.2 -4.2L6 0L4.2 4.2L0 6L-4.2 4.2L-6 0L-4.2 -4.2Z" stroke="#111" fill="none" stroke-width="1"></path></g><g transform="translate(32 568)"><path d="M0 -8L5.7 -5.7L8 0L5.7 5.7L0 8L-5.7 5.7L-8 0L-5.7 -5.7Z" stroke="#111" fill="none" stroke-width="1"></path></g><g transform="translate(610 432)"><path d="M0 -9L6.4 -6.4L9 0L6.4 6.4L0 9L-6.4 6.4L-9 0L-6.4 -6.4Z" stroke="#111" fill="none" stroke-width="1"></path></g><g transform="translate(752 160)"><path d="M0 -12L8.5 -8.5L12 0L8.5 8.5L0 12L-8.5 8.5L-12 0L-8.5 -8.5Z" stroke="#111" fill="none" stroke-width="1"></path></g><g transform="translate(304 542)"><path d="M0 -10L7.1 -7.1L10 0L7.1 7.1L0 10L-7.1 7.1L-10 0L-7.1 -7.1Z" stroke="#111" fill="none" stroke-width="1"></path></g><g transform="translate(432 44)"><path d="M0 -12L8.5 -8.5L12 0L8.5 8.5L0 12L-8.5 8.5L-12 0L-8.5 -8.5Z" stroke="#111" fill="none" stroke-width="1"></path></g><g transform="translate(524 219)"><path d="M0 -7L4.9 -4.9L7 0L4.9 4.9L0 7L-4.9 4.9L-7 0L-4.9 -4.9Z" stroke="#111" fill="none" stroke-width="1"></path></g><g transform="translate(863 214)"><path d="M0 -5L3.5 -3.5L5 0L3.5 3.5L0 5L-3.5 3.5L-5 0L-3.5 -3.5Z" stroke="#111" fill="none" stroke-width="1"></path></g><g transform="translate(117 534)"><path d="M0 -9L6.4 -6.4L9 0L6.4 6.4L0 9L-6.4 6.4L-9 0L-6.4 -6.4Z" stroke="#111" fill="none" stroke-width="1"></path></g><g transform="translate(530 537)"><path d="M0 -11L7.8 -7.8L11 0L7.8 7.8L0 11L-7.8 7.8L-11 0L-7.8 -7.8Z" stroke="#111" fill="none" stroke-width="1"></path></g><g transform="translate(109 349)"><path d="M0 -10L7.1 -7.1L10 0L7.1 7.1L0 10L-7.1 7.1L-10 0L-7.1 -7.1Z" stroke="#111" fill="none" stroke-width="1"></path></g><g transform="translate(209 319)"><path d="M0 -5L3.5 -3.5L5 0L3.5 3.5L0 5L-3.5 3.5L-5 0L-3.5 -3.5Z" stroke="#111" fill="none" stroke-width="1"></path></g><g transform="translate(735 23)"><path d="M0 -12L8.5 -8.5L12 0L8.5 8.5L0 12L-8.5 8.5L-12 0L-8.5 -8.5Z" stroke="#111" fill="none" stroke-width="1"></path></g><g transform="translate(484 70)"><path d="M0 -11L7.8 -7.8L11 0L7.8 7.8L0 11L-7.8 7.8L-11 0L-7.8 -7.8Z" stroke="#111" fill="none" stroke-width="1"></path></g><g transform="translate(788 305)"><path d="M0 -11L7.8 -7.8L11 0L7.8 7.8L0 11L-7.8 7.8L-11 0L-7.8 -7.8Z" stroke="#111" fill="none" stroke-width="1"></path></g><g transform="translate(400 57)"><path d="M0 -3L2.1 -2.1L3 0L2.1 2.1L0 3L-2.1 2.1L-3 0L-2.1 -2.1Z" stroke="#111" fill="none" stroke-width="1"></path></g><g transform="translate(154 475)"><path d="M0 -6L4.2 -4.2L6 0L4.2 4.2L0 6L-4.2 4.2L-6 0L-4.2 -4.2Z" stroke="#111" fill="none" stroke-width="1"></path></g><g transform="translate(790 155)"><path d="M0 -7L4.9 -4.9L7 0L4.9 4.9L0 7L-4.9 4.9L-7 0L-4.9 -4.9Z" stroke="#111" fill="none" stroke-width="1"></path></g><g transform="translate(328 248)"><path d="M0 -10L7.1 -7.1L10 0L7.1 7.1L0 10L-7.1 7.1L-10 0L-7.1 -7.1Z" stroke="#111" fill="none" stroke-width="1"></path></g><g transform="translate(296 597)"><path d="M0 -6L4.2 -4.2L6 0L4.2 4.2L0 6L-4.2 4.2L-6 0L-4.2 -4.2Z" stroke="#111" fill="none" stroke-width="1"></path></g><g transform="translate(879 344)"><path d="M0 -11L7.8 -7.8L11 0L7.8 7.8L0 11L-7.8 7.8L-11 0L-7.8 -7.8Z" stroke="#111" fill="none" stroke-width="1"></path></g><g transform="translate(442 452)"><path d="M0 -5L3.5 -3.5L5 0L3.5 3.5L0 5L-3.5 3.5L-5 0L-3.5 -3.5Z" stroke="#111" fill="none" stroke-width="1"></path></g><g transform="translate(454 485)"><path d="M0 -6L4.2 -4.2L6 0L4.2 4.2L0 6L-4.2 4.2L-6 0L-4.2 -4.2Z" stroke="#111" fill="none" stroke-width="1"></path></g><g transform="translate(707 484)"><path d="M0 -6L4.2 -4.2L6 0L4.2 4.2L0 6L-4.2 4.2L-6 0L-4.2 -4.2Z" stroke="#111" fill="none" stroke-width="1"></path></g><g transform="translate(227 185)"><path d="M0 -9L6.4 -6.4L9 0L6.4 6.4L0 9L-6.4 6.4L-9 0L-6.4 -6.4Z" stroke="#111" fill="none" stroke-width="1"></path></g><g transform="translate(404 499)"><path d="M0 -12L8.5 -8.5L12 0L8.5 8.5L0 12L-8.5 8.5L-12 0L-8.5 -8.5Z" stroke="#111" fill="none" stroke-width="1"></path></g><g transform="translate(373 206)"><path d="M0 -11L7.8 -7.8L11 0L7.8 7.8L0 11L-7.8 7.8L-11 0L-7.8 -7.8Z" stroke="#111" fill="none" stroke-width="1"></path></g><g transform="translate(589 218)"><path d="M0 -6L4.2 -4.2L6 0L4.2 4.2L0 6L-4.2 4.2L-6 0L-4.2 -4.2Z" stroke="#111" fill="none" stroke-width="1"></path></g><g transform="translate(690 424)"><path d="M0 -11L7.8 -7.8L11 0L7.8 7.8L0 11L-7.8 7.8L-11 0L-7.8 -7.8Z" stroke="#111" fill="none" stroke-width="1"></path></g><g transform="translate(150 552)"><path d="M0 -11L7.8 -7.8L11 0L7.8 7.8L0 11L-7.8 7.8L-11 0L-7.8 -7.8Z" stroke="#111" fill="none" stroke-width="1"></path></g><g transform="translate(257 18)"><path d="M0 -12L8.5 -8.5L12 0L8.5 8.5L0 12L-8.5 8.5L-12 0L-8.5 -8.5Z" stroke="#111" fill="none" stroke-width="1"></path></g><g transform="translate(722 290)"><path d="M0 -13L9.2 -9.2L13 0L9.2 9.2L0 13L-9.2 9.2L-13 0L-9.2 -9.2Z" stroke="#111" fill="none" stroke-width="1"></path></g><g transform="translate(388 367)"><path d="M0 -6L4.2 -4.2L6 0L4.2 4.2L0 6L-4.2 4.2L-6 0L-4.2 -4.2Z" stroke="#111" fill="none" stroke-width="1"></path></g><g transform="translate(897 257)"><path d="M0 -3L2.1 -2.1L3 0L2.1 2.1L0 3L-2.1 2.1L-3 0L-2.1 -2.1Z" stroke="#111" fill="none" stroke-width="1"></path></g><g transform="translate(881 410)"><path d="M0 -4L2.8 -2.8L4 0L2.8 2.8L0 4L-2.8 2.8L-4 0L-2.8 -2.8Z" stroke="#111" fill="none" stroke-width="1"></path></g><g transform="translate(683 269)"><path d="M0 -3L2.1 -2.1L3 0L2.1 2.1L0 3L-2.1 2.1L-3 0L-2.1 -2.1Z" stroke="#111" fill="none" stroke-width="1"></path></g><g transform="translate(836 253)"><path d="M0 -8L5.7 -5.7L8 0L5.7 5.7L0 8L-5.7 5.7L-8 0L-5.7 -5.7Z" stroke="#111" fill="none" stroke-width="1"></path></g><g transform="translate(439 179)"><path d="M0 -13L9.2 -9.2L13 0L9.2 9.2L0 13L-9.2 9.2L-13 0L-9.2 -9.2Z" stroke="#111" fill="none" stroke-width="1"></path></g><g transform="translate(66 262)"><path d="M0 -6L4.2 -4.2L6 0L4.2 4.2L0 6L-4.2 4.2L-6 0L-4.2 -4.2Z" stroke="#111" fill="none" stroke-width="1"></path></g><g transform="translate(135 24)"><path d="M0 -6L4.2 -4.2L6 0L4.2 4.2L0 6L-4.2 4.2L-6 0L-4.2 -4.2Z" stroke="#111" fill="none" stroke-width="1"></path></g><g transform="translate(485 162)"><path d="M0 -12L8.5 -8.5L12 0L8.5 8.5L0 12L-8.5 8.5L-12 0L-8.5 -8.5Z" stroke="#111" fill="none" stroke-width="1"></path></g><g transform="translate(677 537)"><path d="M0 -8L5.7 -5.7L8 0L5.7 5.7L0 8L-5.7 5.7L-8 0L-5.7 -5.7Z" stroke="#111" fill="none" stroke-width="1"></path></g><g transform="translate(872 116)"><path d="M0 -12L8.5 -8.5L12 0L8.5 8.5L0 12L-8.5 8.5L-12 0L-8.5 -8.5Z" stroke="#111" fill="none" stroke-width="1"></path></g><g transform="translate(380 20)"><path d="M0 -9L6.4 -6.4L9 0L6.4 6.4L0 9L-6.4 6.4L-9 0L-6.4 -6.4Z" stroke="#111" fill="none" stroke-width="1"></path></g><g transform="translate(284 389)"><path d="M0 -7L4.9 -4.9L7 0L4.9 4.9L0 7L-4.9 4.9L-7 0L-4.9 -4.9Z" stroke="#111" fill="none" stroke-width="1"></path></g><g transform="translate(80 535)"><path d="M0 -8L5.7 -5.7L8 0L5.7 5.7L0 8L-5.7 5.7L-8 0L-5.7 -5.7Z" stroke="#111" fill="none" stroke-width="1"></path></g><g transform="translate(655 321)"><path d="M0 -10L7.1 -7.1L10 0L7.1 7.1L0 10L-7.1 7.1L-10 0L-7.1 -7.1Z" stroke="#111" fill="none" stroke-width="1"></path></g><g transform="translate(781 249)"><path d="M0 -12L8.5 -8.5L12 0L8.5 8.5L0 12L-8.5 8.5L-12 0L-8.5 -8.5Z" stroke="#111" fill="none" stroke-width="1"></path></g><g transform="translate(806 423)"><path d="M0 -4L2.8 -2.8L4 0L2.8 2.8L0 4L-2.8 2.8L-4 0L-2.8 -2.8Z" stroke="#111" fill="none" stroke-width="1"></path></g><g transform="translate(44 478)"><path d="M0 -13L9.2 -9.2L13 0L9.2 9.2L0 13L-9.2 9.2L-13 0L-9.2 -9.2Z" stroke="#111" fill="none" stroke-width="1"></path></g><g transform="translate(892 379)"><path d="M0 -4L2.8 -2.8L4 0L2.8 2.8L0 4L-2.8 2.8L-4 0L-2.8 -2.8Z" stroke="#111" fill="none" stroke-width="1"></path></g><g transform="translate(112 460)"><path d="M0 -6L4.2 -4.2L6 0L4.2 4.2L0 6L-4.2 4.2L-6 0L-4.2 -4.2Z" stroke="#111" fill="none" stroke-width="1"></path></g><g transform="translate(562 416)"><path d="M0 -5L3.5 -3.5L5 0L3.5 3.5L0 5L-3.5 3.5L-5 0L-3.5 -3.5Z" stroke="#111" fill="none" stroke-width="1"></path></g><g transform="translate(216 599)"><path d="M0 -4L2.8 -2.8L4 0L2.8 2.8L0 4L-2.8 2.8L-4 0L-2.8 -2.8Z" stroke="#111" fill="none" stroke-width="1"></path></g><g transform="translate(721 448)"><path d="M0 -13L9.2 -9.2L13 0L9.2 9.2L0 13L-9.2 9.2L-13 0L-9.2 -9.2Z" stroke="#111" fill="none" stroke-width="1"></path></g></g></svg>